<svg xmlns="http://www.w3.org/2000/svg" version="1.1" xmlns:xlink="http://www.w3.org/1999/xlink" xmlns:svgjs="http://svgjs.com/svgjs" width="1920" height="1080" preserveAspectRatio="none" viewBox="0 0 1920 1080"><g mask="url(&quot;#SvgjsMask2607&quot;)" fill="none"><rect width="1920" height="1080" x="0" y="0" fill="url(#SvgjsLinearGradient2608)"></rect><path d="M1547.874,756.387C1642.983,753.705,1713.97,679.194,1760.732,596.331C1806.515,515.203,1832.261,416.806,1784.722,336.694C1737.915,257.814,1639.492,233.261,1547.874,237.624C1464.427,241.598,1391.758,286.916,1347.121,357.533C1298.692,434.149,1272.409,527.989,1313.159,608.951C1357.68,697.406,1448.886,759.178,1547.874,756.387" fill="rgba(35, 250, 35, 0.4)" class="triangle-float2"></path><path d="M686.482,1057.329C747.88,1059.446,814.55,1044.164,845.063,990.843C875.435,937.769,853.89,873.203,821.548,821.306C791.4,772.93,743.476,737.264,686.482,736.379C627.987,735.471,573.165,766.31,543.953,816.997C514.779,867.618,515.973,930.27,545.776,980.523C574.99,1029.783,629.245,1055.355,686.482,1057.329" fill="rgba(35, 250, 35, 0.4)" class="triangle-float1"></path><path d="M1976.913,1328.408C2061.024,1330.323,2123.057,1257.264,2161.836,1182.601C2197.234,1114.449,2202.406,1034.324,2164.285,967.656C2125.891,900.51,2054.258,859.924,1976.913,859.196C1898.258,858.455,1820.807,894.915,1783.327,964.069C1747.297,1030.548,1770.545,1107.724,1806.025,1174.498C1844.577,1247.056,1894.77,1326.537,1976.913,1328.408" fill="rgba(35, 250, 35, 0.4)" class="triangle-float2"></path><path d="M1302.621,626.904C1385.026,626.252,1469.514,595.082,1508.217,522.328C1545.188,452.83,1515.087,371.83,1474.049,304.653C1435.195,241.052,1376.899,191.902,1302.621,185.777C1215.685,178.608,1120.127,197.591,1074.066,271.67C1026.047,348.898,1042.103,449.151,1091.308,525.628C1136.606,596.033,1218.906,627.567,1302.621,626.904" fill="rgba(35, 250, 35, 0.4)" class="triangle-float2"></path><path d="M295.866,174.281C328.002,172.382,354.742,154.104,372.884,127.511C394.404,95.967,416.283,57.579,398.556,23.757C380.08,-11.494,335.666,-19.367,295.866,-19.433C255.919,-19.499,213.194,-10.804,192.588,23.418C171.475,58.483,178.16,103.878,201.282,137.653C221.752,167.555,259.692,176.419,295.866,174.281" fill="rgba(35, 250, 35, 0.4)" class="triangle-float3"></path><path d="M1623.651,765.257C1666.96,765.117,1699.083,728.857,1719,690.399C1737.148,655.356,1737.353,615.196,1719.623,579.939C1699.656,540.233,1668.037,503.063,1623.651,500.788C1576.018,498.346,1530.538,526.597,1508.974,569.14C1489.068,608.412,1504.999,653.013,1527.224,691.021C1549.17,728.553,1580.174,765.398,1623.651,765.257" fill="rgba(35, 250, 35, 0.4)" class="triangle-float2"></path><path d="M1594.752,1308.699C1664.528,1306.881,1709.3,1241.609,1741.437,1179.647C1770.457,1123.694,1785.129,1057.822,1752.993,1003.599C1721.367,950.237,1656.776,933.014,1594.752,932.145C1530.779,931.249,1462.683,944.883,1428.643,999.055C1392.778,1056.131,1402.333,1128.253,1434.199,1187.654C1468.157,1250.956,1522.941,1310.57,1594.752,1308.699" fill="rgba(35, 250, 35, 0.4)" class="triangle-float1"></path><path d="M1822.714,1334.862C1923.558,1342.062,2041.2,1340.333,2093.92,1254.066C2147.917,1165.709,2100.314,1056.762,2046.869,968.07C1995.647,883.067,1921.957,803.942,1822.714,803.998C1723.544,804.054,1643.979,879.941,1598.999,968.323C1558.233,1048.425,1564.377,1142.884,1611.202,1219.602C1656.036,1293.059,1736.875,1328.733,1822.714,1334.862" fill="rgba(35, 250, 35, 0.4)" class="triangle-float1"></path></g><defs><mask id="SvgjsMask2607"><rect width="1920" height="1080" fill="#ffffff"></rect></mask><linearGradient x1="10.94%" y1="-19.44%" x2="89.06%" y2="119.44%" gradientUnits="userSpaceOnUse" id="SvgjsLinearGradient2608"><stop stop-color="rgba(64, 255, 99, 1)" offset="0"></stop><stop stop-color="rgba(8, 2, 2, 1)" offset="1"></stop></linearGradient><style>
            @keyframes float1 {
                0%{transform: translate(0, 0)}
                50%{transform: translate(-10px, 0)}
                100%{transform: translate(0, 0)}
            }

            .triangle-float1 {
                animation: float1 5s infinite;
            }

            @keyframes float2 {
                0%{transform: translate(0, 0)}
                50%{transform: translate(-5px, -5px)}
                100%{transform: translate(0, 0)}
            }

            .triangle-float2 {
                animation: float2 4s infinite;
            }

            @keyframes float3 {
                0%{transform: translate(0, 0)}
                50%{transform: translate(0, -10px)}
                100%{transform: translate(0, 0)}
            }

            .triangle-float3 {
                animation: float3 6s infinite;
            }
        </style></defs></svg>