<svg id="visual" viewBox="0 0 960 540" width="960" height="540" xmlns="http://www.w3.org/2000/svg" xmlns:xlink="http://www.w3.org/1999/xlink" version="1.1"><rect x="0" y="0" width="960" height="540" fill="#FFFFFF"></rect><defs><linearGradient id="grad1_0" x1="43.8%" y1="0%" x2="100%" y2="100%"><stop offset="14.444444444444446%" stop-color="#49fd64" stop-opacity="1"></stop><stop offset="85.55555555555554%" stop-color="#49fd64" stop-opacity="1"></stop></linearGradient></defs><defs><linearGradient id="grad1_1" x1="43.8%" y1="0%" x2="100%" y2="100%"><stop offset="14.444444444444446%" stop-color="#49fd64" stop-opacity="1"></stop><stop offset="85.55555555555554%" stop-color="#8aff8d" stop-opacity="1"></stop></linearGradient></defs><defs><linearGradient id="grad1_2" x1="43.8%" y1="0%" x2="100%" y2="100%"><stop offset="14.444444444444446%" stop-color="#b6ffb4" stop-opacity="1"></stop><stop offset="85.55555555555554%" stop-color="#8aff8d" stop-opacity="1"></stop></linearGradient></defs><defs><linearGradient id="grad1_3" x1="43.8%" y1="0%" x2="100%" y2="100%"><stop offset="14.444444444444446%" stop-color="#b6ffb4" stop-opacity="1"></stop><stop offset="85.55555555555554%" stop-color="#dcffd9" stop-opacity="1"></stop></linearGradient></defs><defs><linearGradient id="grad1_4" x1="43.8%" y1="0%" x2="100%" y2="100%"><stop offset="14.444444444444446%" stop-color="#ffffff" stop-opacity="1"></stop><stop offset="85.55555555555554%" stop-color="#dcffd9" stop-opacity="1"></stop></linearGradient></defs><defs><linearGradient id="grad2_0" x1="0%" y1="0%" x2="56.3%" y2="100%"><stop offset="14.444444444444446%" stop-color="#49fd64" stop-opacity="1"></stop><stop offset="85.55555555555554%" stop-color="#49fd64" stop-opacity="1"></stop></linearGradient></defs><defs><linearGradient id="grad2_1" x1="0%" y1="0%" x2="56.3%" y2="100%"><stop offset="14.444444444444446%" stop-color="#8aff8d" stop-opacity="1"></stop><stop offset="85.55555555555554%" stop-color="#49fd64" stop-opacity="1"></stop></linearGradient></defs><defs><linearGradient id="grad2_2" x1="0%" y1="0%" x2="56.3%" y2="100%"><stop offset="14.444444444444446%" stop-color="#8aff8d" stop-opacity="1"></stop><stop offset="85.55555555555554%" stop-color="#b6ffb4" stop-opacity="1"></stop></linearGradient></defs><defs><linearGradient id="grad2_3" x1="0%" y1="0%" x2="56.3%" y2="100%"><stop offset="14.444444444444446%" stop-color="#dcffd9" stop-opacity="1"></stop><stop offset="85.55555555555554%" stop-color="#b6ffb4" stop-opacity="1"></stop></linearGradient></defs><defs><linearGradient id="grad2_4" x1="0%" y1="0%" x2="56.3%" y2="100%"><stop offset="14.444444444444446%" stop-color="#dcffd9" stop-opacity="1"></stop><stop offset="85.55555555555554%" stop-color="#ffffff" stop-opacity="1"></stop></linearGradient></defs><g transform="translate(960, 0)"><path d="M0 378C-28.2 341.2 -56.4 304.4 -97 298.6C-137.6 292.9 -190.6 318.2 -222.2 305.8C-253.7 293.4 -263.9 243.4 -284.8 206.9C-305.7 170.4 -337.4 147.5 -354.7 115.3C-372.1 83 -375 41.5 -378 0L0 0Z" fill="#eeffec"></path><path d="M0 302.4C-22.6 273 -45.1 243.5 -77.6 238.9C-110.1 234.3 -152.5 254.5 -177.7 244.6C-203 234.7 -211.1 194.7 -227.8 165.5C-244.6 136.3 -269.9 118 -283.8 92.2C-297.7 66.4 -300 33.2 -302.4 0L0 0Z" fill="#caffc7"></path><path d="M0 226.8C-16.9 204.7 -33.9 182.6 -58.2 179.2C-82.6 175.7 -114.4 190.9 -133.3 183.5C-152.2 176.1 -158.3 146 -170.9 124.1C-183.4 102.2 -202.4 88.5 -212.8 69.2C-223.2 49.8 -225 24.9 -226.8 0L0 0Z" fill="#a1ffa1"></path><path d="M0 151.2C-11.3 136.5 -22.6 121.8 -38.8 119.5C-55.1 117.2 -76.3 127.3 -88.9 122.3C-101.5 117.4 -105.5 97.4 -113.9 82.8C-122.3 68.2 -135 59 -141.9 46.1C-148.8 33.2 -150 16.6 -151.2 0L0 0Z" fill="#6efe79"></path><path d="M0 75.6C-5.6 68.2 -11.3 60.9 -19.4 59.7C-27.5 58.6 -38.1 63.6 -44.4 61.2C-50.7 58.7 -52.8 48.7 -57 41.4C-61.1 34.1 -67.5 29.5 -70.9 23.1C-74.4 16.6 -75 8.3 -75.6 0L0 0Z" fill="#49fd64"></path></g><g transform="translate(0, 540)"><path d="M0 -378C35.8 -348.6 71.5 -319.1 93.6 -288.2C115.7 -257.2 124.2 -224.8 156.4 -215.2C188.5 -205.6 244.5 -218.8 284 -206.3C323.5 -193.8 346.6 -155.5 359.5 -116.8C372.4 -78.1 375.2 -39.1 378 0L0 0Z" fill="#eeffec"></path><path d="M0 -302.4C28.6 -278.8 57.2 -255.3 74.9 -230.5C92.6 -205.8 99.3 -179.8 125.1 -172.2C150.8 -164.5 195.6 -175.1 227.2 -165.1C258.8 -155 277.3 -124.4 287.6 -93.4C297.9 -62.5 300.2 -31.3 302.4 0L0 0Z" fill="#caffc7"></path><path d="M0 -226.8C21.5 -209.1 42.9 -191.5 56.2 -172.9C69.4 -154.3 74.5 -134.9 93.8 -129.1C113.1 -123.4 146.7 -131.3 170.4 -123.8C194.1 -116.3 207.9 -93.3 215.7 -70.1C223.5 -46.9 225.1 -23.4 226.8 0L0 0Z" fill="#a1ffa1"></path><path d="M0 -151.2C14.3 -139.4 28.6 -127.6 37.5 -115.3C46.3 -102.9 49.7 -89.9 62.5 -86.1C75.4 -82.2 97.8 -87.5 113.6 -82.5C129.4 -77.5 138.6 -62.2 143.8 -46.7C149 -31.3 150.1 -15.6 151.2 0L0 0Z" fill="#6efe79"></path><path d="M0 -75.6C7.2 -69.7 14.3 -63.8 18.7 -57.6C23.1 -51.4 24.8 -45 31.3 -43C37.7 -41.1 48.9 -43.8 56.8 -41.3C64.7 -38.8 69.3 -31.1 71.9 -23.4C74.5 -15.6 75 -7.8 75.6 0L0 0Z" fill="#49fd64"></path></g></svg>