<svg id="visual" viewBox="0 0 600 900" width="600" height="900" xmlns="http://www.w3.org/2000/svg" xmlns:xlink="http://www.w3.org/1999/xlink" version="1.1"><rect x="0" y="0" width="600" height="900" fill="transparent"></rect><defs><linearGradient id="grad1_0" x1="0%" y1="0%" x2="100%" y2="100%"><stop offset="30%" stop-color="#49fd64" stop-opacity="1"></stop><stop offset="70%" stop-color="#49fd64" stop-opacity="1"></stop></linearGradient></defs><defs><linearGradient id="grad1_1" x1="0%" y1="0%" x2="100%" y2="100%"><stop offset="30%" stop-color="#49fd64" stop-opacity="1"></stop><stop offset="70%" stop-color="#bbce00" stop-opacity="1"></stop></linearGradient></defs><defs><linearGradient id="grad1_2" x1="0%" y1="0%" x2="100%" y2="100%"><stop offset="30%" stop-color="#ef9600" stop-opacity="1"></stop><stop offset="70%" stop-color="#bbce00" stop-opacity="1"></stop></linearGradient></defs><defs><linearGradient id="grad1_3" x1="0%" y1="0%" x2="100%" y2="100%"><stop offset="30%" stop-color="#ef9600" stop-opacity="1"></stop><stop offset="70%" stop-color="#ff5437" stop-opacity="1"></stop></linearGradient></defs><defs><linearGradient id="grad1_4" x1="0%" y1="0%" x2="100%" y2="100%"><stop offset="30%" stop-color="#eb0970" stop-opacity="1"></stop><stop offset="70%" stop-color="#ff5437" stop-opacity="1"></stop></linearGradient></defs><defs><linearGradient id="grad2_0" x1="0%" y1="0%" x2="100%" y2="100%"><stop offset="30%" stop-color="#49fd64" stop-opacity="1"></stop><stop offset="70%" stop-color="#49fd64" stop-opacity="1"></stop></linearGradient></defs><defs><linearGradient id="grad2_1" x1="0%" y1="0%" x2="100%" y2="100%"><stop offset="30%" stop-color="#bbce00" stop-opacity="1"></stop><stop offset="70%" stop-color="#49fd64" stop-opacity="1"></stop></linearGradient></defs><defs><linearGradient id="grad2_2" x1="0%" y1="0%" x2="100%" y2="100%"><stop offset="30%" stop-color="#bbce00" stop-opacity="1"></stop><stop offset="70%" stop-color="#ef9600" stop-opacity="1"></stop></linearGradient></defs><defs><linearGradient id="grad2_3" x1="0%" y1="0%" x2="100%" y2="100%"><stop offset="30%" stop-color="#ff5437" stop-opacity="1"></stop><stop offset="70%" stop-color="#ef9600" stop-opacity="1"></stop></linearGradient></defs><defs><linearGradient id="grad2_4" x1="0%" y1="0%" x2="100%" y2="100%"><stop offset="30%" stop-color="#ff5437" stop-opacity="1"></stop><stop offset="70%" stop-color="#eb0970" stop-opacity="1"></stop></linearGradient></defs><g transform="translate(600, 0)"><path d="M0 338C-25.3 329.5 -50.6 321 -89.6 334.2C-128.5 347.4 -181.2 382.3 -216.3 374.7C-251.5 367.1 -269 316.8 -272.2 272.2C-275.5 227.6 -264.4 188.6 -280.6 162C-296.8 135.4 -340.4 121.2 -359.3 96.3C-378.3 71.4 -372.6 35.7 -367 0L0 0Z" fill="#fb3055"></path><path d="M0 270.4C-20.2 263.6 -40.5 256.8 -71.6 267.4C-102.8 277.9 -145 305.9 -173.1 299.8C-201.2 293.6 -215.2 253.5 -217.8 217.8C-220.4 182.1 -211.5 150.9 -224.5 129.6C-237.5 108.3 -272.3 97 -287.5 77C-302.6 57.1 -298.1 28.5 -293.6 0L0 0Z" fill="#fd760d"></path><path d="M0 202.8C-15.2 197.7 -30.3 192.6 -53.7 200.5C-77.1 208.5 -108.7 229.4 -129.8 224.8C-150.9 220.2 -161.4 190.1 -163.3 163.3C-165.3 136.6 -158.6 113.2 -168.4 97.2C-178.1 81.2 -204.2 72.7 -215.6 57.8C-227 42.8 -223.6 21.4 -220.2 0L0 0Z" fill="#dab300"></path><path d="M0 135.2C-10.1 131.8 -20.2 128.4 -35.8 133.7C-51.4 139 -72.5 152.9 -86.5 149.9C-100.6 146.8 -107.6 126.7 -108.9 108.9C-110.2 91 -105.7 75.4 -112.2 64.8C-118.7 54.2 -136.1 48.5 -143.7 38.5C-151.3 28.5 -149.1 14.3 -146.8 0L0 0Z" fill="#92e724"></path><path d="M0 67.6C-5.1 65.9 -10.1 64.2 -17.9 66.8C-25.7 69.5 -36.2 76.5 -43.3 74.9C-50.3 73.4 -53.8 63.4 -54.4 54.4C-55.1 45.5 -52.9 37.7 -56.1 32.4C-59.4 27.1 -68.1 24.2 -71.9 19.3C-75.7 14.3 -74.5 7.1 -73.4 0L0 0Z" fill="#49fd64"></path></g><g transform="translate(0, 900)"><path d="M0 -389C41.5 -408.5 83.1 -428.1 109.2 -407.6C135.4 -387.2 146.2 -326.7 177 -306.6C207.8 -286.4 258.8 -306.6 299.1 -299.1C339.5 -291.6 369.3 -256.3 374.7 -216.3C380.1 -176.3 361.2 -131.6 353.5 -94.7C345.9 -57.9 349.4 -28.9 353 0L0 0Z" fill="#fb3055"></path><path d="M0 -311.2C33.2 -326.8 66.5 -342.5 87.4 -326.1C108.3 -309.7 116.9 -261.4 141.6 -245.3C166.3 -229.2 207 -245.3 239.3 -239.3C271.6 -233.3 295.4 -205.1 299.8 -173.1C304.1 -141.1 289 -105.3 282.8 -75.8C276.7 -46.3 279.5 -23.2 282.4 0L0 0Z" fill="#fd760d"></path><path d="M0 -233.4C24.9 -245.1 49.8 -256.8 65.5 -244.6C81.2 -232.3 87.7 -196 106.2 -183.9C124.7 -171.9 155.3 -184 179.5 -179.5C203.7 -174.9 221.6 -153.8 224.8 -129.8C228.1 -105.8 216.7 -78.9 212.1 -56.8C207.5 -34.7 209.7 -17.4 211.8 0L0 0Z" fill="#dab300"></path><path d="M0 -155.6C16.6 -163.4 33.2 -171.2 43.7 -163C54.2 -154.9 58.5 -130.7 70.8 -122.6C83.1 -114.6 103.5 -122.7 119.6 -119.6C135.8 -116.6 147.7 -102.5 149.9 -86.5C152.1 -70.5 144.5 -52.6 141.4 -37.9C138.3 -23.2 139.8 -11.6 141.2 0L0 0Z" fill="#92e724"></path><path d="M0 -77.8C8.3 -81.7 16.6 -85.6 21.8 -81.5C27.1 -77.4 29.2 -65.3 35.4 -61.3C41.6 -57.3 51.8 -61.3 59.8 -59.8C67.9 -58.3 73.9 -51.3 74.9 -43.3C76 -35.3 72.2 -26.3 70.7 -18.9C69.2 -11.6 69.9 -5.8 70.6 0L0 0Z" fill="#49fd64"></path></g></svg>