<svg id="visual" viewBox="0 0 960 540" width="960" height="540" xmlns="http://www.w3.org/2000/svg" xmlns:xlink="http://www.w3.org/1999/xlink" version="1.1"><g><g transform="translate(259 501)"><path d="M76 -67.1C93.9 -38.2 100.6 -6.8 96 25.3C91.3 57.4 75.3 90.3 48.7 104.4C22 118.6 -15.3 114 -44.4 97.8C-73.6 81.7 -94.4 54 -104.6 20.7C-114.7 -12.6 -114.1 -51.6 -94.9 -80.9C-75.7 -110.1 -37.8 -129.7 -4.4 -126.2C29 -122.7 58.1 -96.1 76 -67.1Z" stroke="#49fd64" fill="none" stroke-width="16"></path></g><g transform="translate(603 460)"><path d="M90 -72.5C108.6 -48.5 110 -11.5 100.3 19.7C90.6 50.9 69.8 76.4 40.7 94.1C11.6 111.8 -25.9 121.7 -51.7 108.8C-77.5 95.8 -91.7 60 -100 23C-108.3 -14 -110.7 -52.1 -93.1 -76C-75.5 -99.8 -37.7 -109.3 -1 -108.5C35.7 -107.7 71.4 -96.6 90 -72.5Z" stroke="#49fd64" fill="none" stroke-width="16"></path></g><g transform="translate(873 247)"><path d="M84.6 -68.3C100.1 -48.1 96.4 -13.4 85.8 14.2C75.2 41.9 57.7 62.6 34.7 74.7C11.7 86.9 -16.8 90.4 -39.9 80.3C-63.1 70.1 -80.9 46.3 -90.6 16.9C-100.4 -12.6 -102.1 -47.7 -85.6 -68.2C-69.2 -88.6 -34.6 -94.5 0 -94.5C34.6 -94.5 69.1 -88.6 84.6 -68.3Z" stroke="#49fd64" fill="none" stroke-width="16"></path></g><g transform="translate(28 4)"><path d="M87.3 -65.6C110.9 -40.1 126.1 -3.9 118 25.2C110 54.4 78.7 76.5 45.5 91.2C12.3 105.9 -22.9 113.2 -46.8 100.5C-70.8 87.7 -83.5 54.8 -91.3 20.8C-99 -13.2 -101.8 -48.3 -85.8 -72.1C-69.8 -95.9 -34.9 -108.3 -1.5 -107.1C31.9 -105.9 63.8 -91.1 87.3 -65.6Z" stroke="#49fd64" fill="none" stroke-width="16"></path></g></g></svg>