<svg id="visual" viewBox="0 0 960 540" width="960" height="540" xmlns="http://www.w3.org/2000/svg" xmlns:xlink="http://www.w3.org/1999/xlink" version="1.1"><path d="M0 114L16 117.5C32 121 64 128 96 123C128 118 160 101 192 95.3C224 89.7 256 95.3 288 97C320 98.7 352 96.3 384 109.2C416 122 448 150 480 153.5C512 157 544 136 576 134.8C608 133.7 640 152.3 672 157.3C704 162.3 736 153.7 768 147.5C800 141.3 832 137.7 864 134.5C896 131.3 928 128.7 944 127.3L960 126L960 0L944 0C928 0 896 0 864 0C832 0 800 0 768 0C736 0 704 0 672 0C640 0 608 0 576 0C544 0 512 0 480 0C448 0 416 0 384 0C352 0 320 0 288 0C256 0 224 0 192 0C160 0 128 0 96 0C64 0 32 0 16 0L0 0Z" fill="#6bf163"></path><path d="M0 90L16 91.2C32 92.3 64 94.7 96 94.2C128 93.7 160 90.3 192 93C224 95.7 256 104.3 288 101.8C320 99.3 352 85.7 384 88.2C416 90.7 448 109.3 480 115.5C512 121.7 544 115.3 576 104.8C608 94.3 640 79.7 672 84C704 88.3 736 111.7 768 115.7C800 119.7 832 104.3 864 106.3C896 108.3 928 127.7 944 137.3L960 147L960 0L944 0C928 0 896 0 864 0C832 0 800 0 768 0C736 0 704 0 672 0C640 0 608 0 576 0C544 0 512 0 480 0C448 0 416 0 384 0C352 0 320 0 288 0C256 0 224 0 192 0C160 0 128 0 96 0C64 0 32 0 16 0L0 0Z" fill="#53c84c"></path><path d="M0 77L16 80.3C32 83.7 64 90.3 96 89.3C128 88.3 160 79.7 192 79.3C224 79 256 87 288 91C320 95 352 95 384 97.2C416 99.3 448 103.7 480 96C512 88.3 544 68.7 576 68.2C608 67.7 640 86.3 672 97.3C704 108.3 736 111.7 768 104.2C800 96.7 832 78.3 864 73.7C896 69 928 78 944 82.5L960 87L960 0L944 0C928 0 896 0 864 0C832 0 800 0 768 0C736 0 704 0 672 0C640 0 608 0 576 0C544 0 512 0 480 0C448 0 416 0 384 0C352 0 320 0 288 0C256 0 224 0 192 0C160 0 128 0 96 0C64 0 32 0 16 0L0 0Z" fill="#3ba135"></path><path d="M0 75L16 71.3C32 67.7 64 60.3 96 59.5C128 58.7 160 64.3 192 67C224 69.7 256 69.3 288 66.2C320 63 352 57 384 57C416 57 448 63 480 62.3C512 61.7 544 54.3 576 54.7C608 55 640 63 672 60.5C704 58 736 45 768 47.3C800 49.7 832 67.3 864 68.5C896 69.7 928 54.3 944 46.7L960 39L960 0L944 0C928 0 896 0 864 0C832 0 800 0 768 0C736 0 704 0 672 0C640 0 608 0 576 0C544 0 512 0 480 0C448 0 416 0 384 0C352 0 320 0 288 0C256 0 224 0 192 0C160 0 128 0 96 0C64 0 32 0 16 0L0 0Z" fill="#237b20"></path><path d="M0 26L16 28.5C32 31 64 36 96 35.3C128 34.7 160 28.3 192 30C224 31.7 256 41.3 288 47C320 52.7 352 54.3 384 48.3C416 42.3 448 28.7 480 23.3C512 18 544 21 576 26.8C608 32.7 640 41.3 672 40.8C704 40.3 736 30.7 768 24.7C800 18.7 832 16.3 864 21.5C896 26.7 928 39.3 944 45.7L960 52L960 0L944 0C928 0 896 0 864 0C832 0 800 0 768 0C736 0 704 0 672 0C640 0 608 0 576 0C544 0 512 0 480 0C448 0 416 0 384 0C352 0 320 0 288 0C256 0 224 0 192 0C160 0 128 0 96 0C64 0 32 0 16 0L0 0Z" fill="#09570b"></path></svg>