<svg id="visual" viewBox="0 0 960 540" width="960" height="540" xmlns="http://www.w3.org/2000/svg" xmlns:xlink="http://www.w3.org/1999/xlink" version="1.1"><path d="M0 166L22.8 159.5C45.7 153 91.3 140 137 139.2C182.7 138.3 228.3 149.7 274 152C319.7 154.3 365.3 147.7 411.2 139.2C457 130.7 503 120.3 548.8 118.3C594.7 116.3 640.3 122.7 686 129.8C731.7 137 777.3 145 823 150.7C868.7 156.3 914.3 159.7 937.2 161.3L960 163L960 0L937.2 0C914.3 0 868.7 0 823 0C777.3 0 731.7 0 686 0C640.3 0 594.7 0 548.8 0C503 0 457 0 411.2 0C365.3 0 319.7 0 274 0C228.3 0 182.7 0 137 0C91.3 0 45.7 0 22.8 0L0 0Z" fill="#daffd6"></path><path d="M0 106L22.8 112.8C45.7 119.7 91.3 133.3 137 133.2C182.7 133 228.3 119 274 109.8C319.7 100.7 365.3 96.3 411.2 101.3C457 106.3 503 120.7 548.8 129.7C594.7 138.7 640.3 142.3 686 138.7C731.7 135 777.3 124 823 121.2C868.7 118.3 914.3 123.7 937.2 126.3L960 129L960 0L937.2 0C914.3 0 868.7 0 823 0C777.3 0 731.7 0 686 0C640.3 0 594.7 0 548.8 0C503 0 457 0 411.2 0C365.3 0 319.7 0 274 0C228.3 0 182.7 0 137 0C91.3 0 45.7 0 22.8 0L0 0Z" fill="#bfffbb"></path><path d="M0 102L22.8 101.2C45.7 100.3 91.3 98.7 137 100.7C182.7 102.7 228.3 108.3 274 103.7C319.7 99 365.3 84 411.2 82.3C457 80.7 503 92.3 548.8 94.3C594.7 96.3 640.3 88.7 686 85.2C731.7 81.7 777.3 82.3 823 85.8C868.7 89.3 914.3 95.7 937.2 98.8L960 102L960 0L937.2 0C914.3 0 868.7 0 823 0C777.3 0 731.7 0 686 0C640.3 0 594.7 0 548.8 0C503 0 457 0 411.2 0C365.3 0 319.7 0 274 0C228.3 0 182.7 0 137 0C91.3 0 45.7 0 22.8 0L0 0Z" fill="#a0ff9f"></path><path d="M0 73L22.8 68.8C45.7 64.7 91.3 56.3 137 53.7C182.7 51 228.3 54 274 56.5C319.7 59 365.3 61 411.2 60.2C457 59.3 503 55.7 548.8 59C594.7 62.3 640.3 72.7 686 75.7C731.7 78.7 777.3 74.3 823 71.3C868.7 68.3 914.3 66.7 937.2 65.8L960 65L960 0L937.2 0C914.3 0 868.7 0 823 0C777.3 0 731.7 0 686 0C640.3 0 594.7 0 548.8 0C503 0 457 0 411.2 0C365.3 0 319.7 0 274 0C228.3 0 182.7 0 137 0C91.3 0 45.7 0 22.8 0L0 0Z" fill="#7cfe82"></path><path d="M0 50L22.8 48.7C45.7 47.3 91.3 44.7 137 43.3C182.7 42 228.3 42 274 43.2C319.7 44.3 365.3 46.7 411.2 46.7C457 46.7 503 44.3 548.8 42C594.7 39.7 640.3 37.3 686 34.8C731.7 32.3 777.3 29.7 823 29C868.7 28.3 914.3 29.7 937.2 30.3L960 31L960 0L937.2 0C914.3 0 868.7 0 823 0C777.3 0 731.7 0 686 0C640.3 0 594.7 0 548.8 0C503 0 457 0 411.2 0C365.3 0 319.7 0 274 0C228.3 0 182.7 0 137 0C91.3 0 45.7 0 22.8 0L0 0Z" fill="#49fd64"></path></svg>