<svg id="visual" viewBox="0 0 960 540" width="960" height="540" xmlns="http://www.w3.org/2000/svg" xmlns:xlink="http://www.w3.org/1999/xlink" version="1.1"><path d="M0 390L22.8 386.3C45.7 382.7 91.3 375.3 137 377.8C182.7 380.3 228.3 392.7 274 401.5C319.7 410.3 365.3 415.7 411.2 417C457 418.3 503 415.7 548.8 407.7C594.7 399.7 640.3 386.3 686 386.3C731.7 386.3 777.3 399.7 823 407C868.7 414.3 914.3 415.7 937.2 416.3L960 417L960 541L937.2 541C914.3 541 868.7 541 823 541C777.3 541 731.7 541 686 541C640.3 541 594.7 541 548.8 541C503 541 457 541 411.2 541C365.3 541 319.7 541 274 541C228.3 541 182.7 541 137 541C91.3 541 45.7 541 22.8 541L0 541Z" fill="#daffd6"></path><path d="M0 433L22.8 426.2C45.7 419.3 91.3 405.7 137 404.3C182.7 403 228.3 414 274 414.3C319.7 414.7 365.3 404.3 411.2 402.2C457 400 503 406 548.8 413.7C594.7 421.3 640.3 430.7 686 436.5C731.7 442.3 777.3 444.7 823 444.3C868.7 444 914.3 441 937.2 439.5L960 438L960 541L937.2 541C914.3 541 868.7 541 823 541C777.3 541 731.7 541 686 541C640.3 541 594.7 541 548.8 541C503 541 457 541 411.2 541C365.3 541 319.7 541 274 541C228.3 541 182.7 541 137 541C91.3 541 45.7 541 22.8 541L0 541Z" fill="#bfffbb"></path><path d="M0 433L22.8 439.3C45.7 445.7 91.3 458.3 137 457.7C182.7 457 228.3 443 274 440.3C319.7 437.7 365.3 446.3 411.2 447.3C457 448.3 503 441.7 548.8 437C594.7 432.3 640.3 429.7 686 433.2C731.7 436.7 777.3 446.3 823 445.8C868.7 445.3 914.3 434.7 937.2 429.3L960 424L960 541L937.2 541C914.3 541 868.7 541 823 541C777.3 541 731.7 541 686 541C640.3 541 594.7 541 548.8 541C503 541 457 541 411.2 541C365.3 541 319.7 541 274 541C228.3 541 182.7 541 137 541C91.3 541 45.7 541 22.8 541L0 541Z" fill="#a0ff9f"></path><path d="M0 478L22.8 479.7C45.7 481.3 91.3 484.7 137 483C182.7 481.3 228.3 474.7 274 473C319.7 471.3 365.3 474.7 411.2 478.3C457 482 503 486 548.8 483.2C594.7 480.3 640.3 470.7 686 465.7C731.7 460.7 777.3 460.3 823 461.2C868.7 462 914.3 464 937.2 465L960 466L960 541L937.2 541C914.3 541 868.7 541 823 541C777.3 541 731.7 541 686 541C640.3 541 594.7 541 548.8 541C503 541 457 541 411.2 541C365.3 541 319.7 541 274 541C228.3 541 182.7 541 137 541C91.3 541 45.7 541 22.8 541L0 541Z" fill="#7cfe82"></path><path d="M0 515L22.8 514.5C45.7 514 91.3 513 137 511C182.7 509 228.3 506 274 505.3C319.7 504.7 365.3 506.3 411.2 504C457 501.7 503 495.3 548.8 496.2C594.7 497 640.3 505 686 505C731.7 505 777.3 497 823 497.7C868.7 498.3 914.3 507.7 937.2 512.3L960 517L960 541L937.2 541C914.3 541 868.7 541 823 541C777.3 541 731.7 541 686 541C640.3 541 594.7 541 548.8 541C503 541 457 541 411.2 541C365.3 541 319.7 541 274 541C228.3 541 182.7 541 137 541C91.3 541 45.7 541 22.8 541L0 541Z" fill="#49fd64"></path></svg>