<svg id="visual" viewBox="0 0 600 900" width="600" height="900" xmlns="http://www.w3.org/2000/svg" xmlns:xlink="http://www.w3.org/1999/xlink" version="1.1"><rect x="0" y="0" width="600" height="900" fill="transparent"></rect><defs><linearGradient id="grad1_0" x1="0%" y1="0%" x2="100%" y2="100%"><stop offset="30%" stop-color="#49fd64" stop-opacity="1"></stop><stop offset="70%" stop-color="#49fd64" stop-opacity="1"></stop></linearGradient></defs><defs><linearGradient id="grad1_1" x1="0%" y1="0%" x2="100%" y2="100%"><stop offset="30%" stop-color="#49fd64" stop-opacity="1"></stop><stop offset="70%" stop-color="#8aff8d" stop-opacity="1"></stop></linearGradient></defs><defs><linearGradient id="grad1_2" x1="0%" y1="0%" x2="100%" y2="100%"><stop offset="30%" stop-color="#b6ffb4" stop-opacity="1"></stop><stop offset="70%" stop-color="#8aff8d" stop-opacity="1"></stop></linearGradient></defs><defs><linearGradient id="grad1_3" x1="0%" y1="0%" x2="100%" y2="100%"><stop offset="30%" stop-color="#b6ffb4" stop-opacity="1"></stop><stop offset="70%" stop-color="#dcffd9" stop-opacity="1"></stop></linearGradient></defs><defs><linearGradient id="grad1_4" x1="0%" y1="0%" x2="100%" y2="100%"><stop offset="30%" stop-color="#ffffff" stop-opacity="1"></stop><stop offset="70%" stop-color="#dcffd9" stop-opacity="1"></stop></linearGradient></defs><defs><linearGradient id="grad2_0" x1="0%" y1="0%" x2="100%" y2="100%"><stop offset="30%" stop-color="#49fd64" stop-opacity="1"></stop><stop offset="70%" stop-color="#49fd64" stop-opacity="1"></stop></linearGradient></defs><defs><linearGradient id="grad2_1" x1="0%" y1="0%" x2="100%" y2="100%"><stop offset="30%" stop-color="#8aff8d" stop-opacity="1"></stop><stop offset="70%" stop-color="#49fd64" stop-opacity="1"></stop></linearGradient></defs><defs><linearGradient id="grad2_2" x1="0%" y1="0%" x2="100%" y2="100%"><stop offset="30%" stop-color="#8aff8d" stop-opacity="1"></stop><stop offset="70%" stop-color="#b6ffb4" stop-opacity="1"></stop></linearGradient></defs><defs><linearGradient id="grad2_3" x1="0%" y1="0%" x2="100%" y2="100%"><stop offset="30%" stop-color="#dcffd9" stop-opacity="1"></stop><stop offset="70%" stop-color="#b6ffb4" stop-opacity="1"></stop></linearGradient></defs><defs><linearGradient id="grad2_4" x1="0%" y1="0%" x2="100%" y2="100%"><stop offset="30%" stop-color="#dcffd9" stop-opacity="1"></stop><stop offset="70%" stop-color="#ffffff" stop-opacity="1"></stop></linearGradient></defs><g transform="translate(600, 0)"><path d="M0 288C-32.5 316.9 -65.1 345.7 -91.1 340C-117.2 334.3 -136.7 294 -153 265C-169.3 236 -182.2 218.3 -206.5 206.5C-230.7 194.6 -266.3 188.6 -297.9 172C-329.5 155.4 -357.2 128.4 -365.7 98C-374.2 67.6 -363.6 33.8 -353 0L0 0Z" fill="#eeffec"></path><path d="M0 230.4C-26 253.5 -52 276.6 -72.9 272C-93.7 267.4 -109.4 235.2 -122.4 212C-135.4 188.8 -145.8 174.7 -165.2 165.2C-184.6 155.7 -213 150.8 -238.3 137.6C-263.6 124.4 -285.7 102.7 -292.5 78.4C-299.4 54.1 -290.9 27 -282.4 0L0 0Z" fill="#caffc7"></path><path d="M0 172.8C-19.5 190.1 -39 207.4 -54.7 204C-70.3 200.6 -82 176.4 -91.8 159C-101.6 141.6 -109.3 131 -123.9 123.9C-138.4 116.8 -159.8 113.1 -178.7 103.2C-197.7 93.3 -214.3 77 -219.4 58.8C-224.5 40.5 -218.2 20.3 -211.8 0L0 0Z" fill="#a1ffa1"></path><path d="M0 115.2C-13 126.7 -26 138.3 -36.4 136C-46.9 133.7 -54.7 117.6 -61.2 106C-67.7 94.4 -72.9 87.3 -82.6 82.6C-92.3 77.8 -106.5 75.4 -119.2 68.8C-131.8 62.2 -142.9 51.4 -146.3 39.2C-149.7 27 -145.4 13.5 -141.2 0L0 0Z" fill="#6efe79"></path><path d="M0 57.6C-6.5 63.4 -13 69.1 -18.2 68C-23.4 66.9 -27.3 58.8 -30.6 53C-33.9 47.2 -36.4 43.7 -41.3 41.3C-46.1 38.9 -53.3 37.7 -59.6 34.4C-65.9 31.1 -71.4 25.7 -73.1 19.6C-74.8 13.5 -72.7 6.8 -70.6 0L0 0Z" fill="#49fd64"></path></g><g transform="translate(0, 900)"><path d="M0 -358C35 -359.7 70.1 -361.5 90.3 -337.1C110.6 -312.8 116.1 -262.3 144.5 -250.3C172.9 -238.2 224.3 -264.5 260.9 -260.9C297.5 -257.3 319.4 -223.9 327.9 -189.3C336.4 -154.7 331.5 -119 325.5 -87.2C319.5 -55.5 312.2 -27.7 305 0L0 0Z" fill="#eeffec"></path><path d="M0 -286.4C28 -287.8 56.1 -289.2 72.3 -269.7C88.5 -250.2 92.9 -209.9 115.6 -200.2C138.3 -190.6 179.5 -211.6 208.7 -208.7C238 -205.9 255.5 -179.1 262.3 -151.4C269.1 -123.8 265.2 -95.2 260.4 -69.8C255.6 -44.4 249.8 -22.2 244 0L0 0Z" fill="#caffc7"></path><path d="M0 -214.8C21 -215.8 42 -216.9 54.2 -202.3C66.4 -187.7 69.6 -157.4 86.7 -150.2C103.8 -142.9 134.6 -158.7 156.6 -156.6C178.5 -154.4 191.6 -134.3 196.7 -113.6C201.8 -92.8 198.9 -71.4 195.3 -52.3C191.7 -33.3 187.3 -16.6 183 0L0 0Z" fill="#a1ffa1"></path><path d="M0 -143.2C14 -143.9 28 -144.6 36.1 -134.8C44.2 -125.1 46.4 -104.9 57.8 -100.1C69.2 -95.3 89.7 -105.8 104.4 -104.4C119 -102.9 127.7 -89.6 131.1 -75.7C134.5 -61.9 132.6 -47.6 130.2 -34.9C127.8 -22.2 124.9 -11.1 122 0L0 0Z" fill="#6efe79"></path><path d="M0 -71.6C7 -71.9 14 -72.3 18.1 -67.4C22.1 -62.6 23.2 -52.5 28.9 -50.1C34.6 -47.6 44.9 -52.9 52.2 -52.2C59.5 -51.5 63.9 -44.8 65.6 -37.9C67.3 -30.9 66.3 -23.8 65.1 -17.4C63.9 -11.1 62.4 -5.5 61 0L0 0Z" fill="#49fd64"></path></g></svg>