<svg id="visual" viewBox="0 0 600 900" width="600" height="900" xmlns="http://www.w3.org/2000/svg" xmlns:xlink="http://www.w3.org/1999/xlink" version="1.1"><rect x="0" y="0" width="600" height="900" fill="#ffffff"></rect><defs><linearGradient id="grad1_0" x1="0%" y1="0%" x2="100%" y2="100%"><stop offset="30%" stop-color="#49fd64" stop-opacity="1"></stop><stop offset="70%" stop-color="#49fd64" stop-opacity="1"></stop></linearGradient></defs><defs><linearGradient id="grad1_1" x1="0%" y1="0%" x2="100%" y2="100%"><stop offset="30%" stop-color="#49fd64" stop-opacity="1"></stop><stop offset="70%" stop-color="#8aff8d" stop-opacity="1"></stop></linearGradient></defs><defs><linearGradient id="grad1_2" x1="0%" y1="0%" x2="100%" y2="100%"><stop offset="30%" stop-color="#b6ffb4" stop-opacity="1"></stop><stop offset="70%" stop-color="#8aff8d" stop-opacity="1"></stop></linearGradient></defs><defs><linearGradient id="grad1_3" x1="0%" y1="0%" x2="100%" y2="100%"><stop offset="30%" stop-color="#b6ffb4" stop-opacity="1"></stop><stop offset="70%" stop-color="#dcffd9" stop-opacity="1"></stop></linearGradient></defs><defs><linearGradient id="grad1_4" x1="0%" y1="0%" x2="100%" y2="100%"><stop offset="30%" stop-color="#ffffff" stop-opacity="1"></stop><stop offset="70%" stop-color="#dcffd9" stop-opacity="1"></stop></linearGradient></defs><defs><linearGradient id="grad2_0" x1="0%" y1="0%" x2="100%" y2="100%"><stop offset="30%" stop-color="#49fd64" stop-opacity="1"></stop><stop offset="70%" stop-color="#49fd64" stop-opacity="1"></stop></linearGradient></defs><defs><linearGradient id="grad2_1" x1="0%" y1="0%" x2="100%" y2="100%"><stop offset="30%" stop-color="#8aff8d" stop-opacity="1"></stop><stop offset="70%" stop-color="#49fd64" stop-opacity="1"></stop></linearGradient></defs><defs><linearGradient id="grad2_2" x1="0%" y1="0%" x2="100%" y2="100%"><stop offset="30%" stop-color="#8aff8d" stop-opacity="1"></stop><stop offset="70%" stop-color="#b6ffb4" stop-opacity="1"></stop></linearGradient></defs><defs><linearGradient id="grad2_3" x1="0%" y1="0%" x2="100%" y2="100%"><stop offset="30%" stop-color="#dcffd9" stop-opacity="1"></stop><stop offset="70%" stop-color="#b6ffb4" stop-opacity="1"></stop></linearGradient></defs><defs><linearGradient id="grad2_4" x1="0%" y1="0%" x2="100%" y2="100%"><stop offset="30%" stop-color="#dcffd9" stop-opacity="1"></stop><stop offset="70%" stop-color="#ffffff" stop-opacity="1"></stop></linearGradient></defs><g transform="translate(600, 0)"><path d="M0 276C-23.2 263.1 -46.3 250.3 -63.4 236.7C-80.5 223 -91.5 208.6 -123 213C-154.5 217.5 -206.6 240.7 -229.5 229.5C-252.3 218.2 -246 172.5 -240.8 139C-235.5 105.5 -231.3 84 -234.7 62.9C-238.1 41.7 -249.1 20.9 -260 0L0 0Z" fill="#eeffec"></path><path d="M0 220.8C-18.5 210.5 -37.1 200.2 -50.7 189.3C-64.4 178.4 -73.2 166.9 -98.4 170.4C-123.6 174 -165.3 192.5 -183.6 183.6C-201.9 174.6 -196.8 138 -192.6 111.2C-188.4 84.4 -185.1 67.2 -187.8 50.3C-190.5 33.4 -199.2 16.7 -208 0L0 0Z" fill="#caffc7"></path><path d="M0 165.6C-13.9 157.9 -27.8 150.2 -38 142C-48.3 133.8 -54.9 125.2 -73.8 127.8C-92.7 130.5 -124 144.4 -137.7 137.7C-151.4 130.9 -147.6 103.5 -144.5 83.4C-141.3 63.3 -138.8 50.4 -140.8 37.7C-142.9 25 -149.4 12.5 -156 0L0 0Z" fill="#a1ffa1"></path><path d="M0 110.4C-9.3 105.3 -18.5 100.1 -25.4 94.7C-32.2 89.2 -36.6 83.5 -49.2 85.2C-61.8 87 -82.6 96.3 -91.8 91.8C-100.9 87.3 -98.4 69 -96.3 55.6C-94.2 42.2 -92.5 33.6 -93.9 25.2C-95.2 16.7 -99.6 8.3 -104 0L0 0Z" fill="#6efe79"></path><path d="M0 55.2C-4.6 52.6 -9.3 50.1 -12.7 47.3C-16.1 44.6 -18.3 41.7 -24.6 42.6C-30.9 43.5 -41.3 48.1 -45.9 45.9C-50.5 43.6 -49.2 34.5 -48.2 27.8C-47.1 21.1 -46.3 16.8 -46.9 12.6C-47.6 8.3 -49.8 4.2 -52 0L0 0Z" fill="#49fd64"></path></g><g transform="translate(0, 900)"><path d="M0 -270C27.3 -280.2 54.5 -290.5 76.4 -284.9C98.2 -279.4 114.5 -258.1 145 -251.1C175.5 -244.2 220.1 -251.8 229.5 -229.5C238.8 -207.1 212.9 -155 217.4 -125.5C221.8 -96 256.7 -89.1 268.5 -72C280.4 -54.8 269.2 -27.4 258 0L0 0Z" fill="#eeffec"></path><path d="M0 -216C21.8 -224.2 43.6 -232.4 61.1 -228C78.5 -223.5 91.6 -206.4 116 -200.9C140.4 -195.4 176.1 -201.4 183.6 -183.6C191 -165.7 170.3 -124 173.9 -100.4C177.5 -76.8 205.4 -71.3 214.8 -57.6C224.3 -43.8 215.3 -21.9 206.4 0L0 0Z" fill="#caffc7"></path><path d="M0 -162C16.4 -168.1 32.7 -174.3 45.8 -171C58.9 -167.6 68.7 -154.8 87 -150.7C105.3 -146.5 132.1 -151.1 137.7 -137.7C143.3 -124.3 127.7 -93 130.4 -75.3C133.1 -57.6 154 -53.5 161.1 -43.2C168.2 -32.9 161.5 -16.4 154.8 0L0 0Z" fill="#a1ffa1"></path><path d="M0 -108C10.9 -112.1 21.8 -116.2 30.5 -114C39.3 -111.8 45.8 -103.2 58 -100.5C70.2 -97.7 88 -100.7 91.8 -91.8C95.5 -82.9 85.2 -62 86.9 -50.2C88.7 -38.4 102.7 -35.6 107.4 -28.8C112.1 -21.9 107.7 -11 103.2 0L0 0Z" fill="#6efe79"></path><path d="M0 -54C5.5 -56 10.9 -58.1 15.3 -57C19.6 -55.9 22.9 -51.6 29 -50.2C35.1 -48.8 44 -50.4 45.9 -45.9C47.8 -41.4 42.6 -31 43.5 -25.1C44.4 -19.2 51.3 -17.8 53.7 -14.4C56.1 -11 53.8 -5.5 51.6 0L0 0Z" fill="#49fd64"></path></g></svg>