<svg id="visual" viewBox="0 0 960 540" width="960" height="540" xmlns="http://www.w3.org/2000/svg" xmlns:xlink="http://www.w3.org/1999/xlink" version="1.1"><rect x="0" y="0" width="960" height="540" fill="none"></rect><defs><linearGradient id="grad1_0" x1="43.8%" y1="0%" x2="100%" y2="100%"><stop offset="14.444444444444446%" stop-color="#49fd64" stop-opacity="1"></stop><stop offset="85.55555555555554%" stop-color="#49fd64" stop-opacity="1"></stop></linearGradient></defs><defs><linearGradient id="grad1_1" x1="43.8%" y1="0%" x2="100%" y2="100%"><stop offset="14.444444444444446%" stop-color="#49fd64" stop-opacity="1"></stop><stop offset="85.55555555555554%" stop-color="#79ff93" stop-opacity="1"></stop></linearGradient></defs><defs><linearGradient id="grad1_2" x1="43.8%" y1="0%" x2="100%" y2="100%"><stop offset="14.444444444444446%" stop-color="#a3ffbb" stop-opacity="1"></stop><stop offset="85.55555555555554%" stop-color="#79ff93" stop-opacity="1"></stop></linearGradient></defs><defs><linearGradient id="grad1_3" x1="43.8%" y1="0%" x2="100%" y2="100%"><stop offset="14.444444444444446%" stop-color="#a3ffbb" stop-opacity="1"></stop><stop offset="85.55555555555554%" stop-color="#ccffdd" stop-opacity="1"></stop></linearGradient></defs><defs><linearGradient id="grad1_4" x1="43.8%" y1="0%" x2="100%" y2="100%"><stop offset="14.444444444444446%" stop-color="none" stop-opacity="1"></stop><stop offset="85.55555555555554%" stop-color="#ccffdd" stop-opacity="1"></stop></linearGradient></defs><defs><linearGradient id="grad2_0" x1="0%" y1="0%" x2="56.3%" y2="100%"><stop offset="14.444444444444446%" stop-color="#49fd64" stop-opacity="1"></stop><stop offset="85.55555555555554%" stop-color="#49fd64" stop-opacity="1"></stop></linearGradient></defs><defs><linearGradient id="grad2_1" x1="0%" y1="0%" x2="56.3%" y2="100%"><stop offset="14.444444444444446%" stop-color="#79ff93" stop-opacity="1"></stop><stop offset="85.55555555555554%" stop-color="#49fd64" stop-opacity="1"></stop></linearGradient></defs><defs><linearGradient id="grad2_2" x1="0%" y1="0%" x2="56.3%" y2="100%"><stop offset="14.444444444444446%" stop-color="#79ff93" stop-opacity="1"></stop><stop offset="85.55555555555554%" stop-color="#a3ffbb" stop-opacity="1"></stop></linearGradient></defs><defs><linearGradient id="grad2_3" x1="0%" y1="0%" x2="56.3%" y2="100%"><stop offset="14.444444444444446%" stop-color="#ccffdd" stop-opacity="1"></stop><stop offset="85.55555555555554%" stop-color="#a3ffbb" stop-opacity="1"></stop></linearGradient></defs><defs><linearGradient id="grad2_4" x1="0%" y1="0%" x2="56.3%" y2="100%"><stop offset="14.444444444444446%" stop-color="#ccffdd" stop-opacity="1"></stop><stop offset="85.55555555555554%" stop-color="none" stop-opacity="1"></stop></linearGradient></defs><g transform="translate(960, 0)"><path d="M0 378C-29.7 379.2 -59.5 380.4 -84.1 368.5C-108.8 356.7 -128.3 331.8 -153.6 318.9C-178.9 306.1 -209.9 305.4 -231.9 290.8C-254 276.3 -267.1 248 -278.3 222C-289.5 195.9 -298.8 172.1 -309 148.8C-319.3 125.6 -330.5 102.8 -342.2 78.1C-353.9 53.4 -365.9 26.7 -378 0L0 0Z" fill="#e1ffec"></path><path d="M0 302.4C-23.8 303.4 -47.6 304.3 -67.3 294.8C-87 285.3 -102.7 265.4 -122.9 255.2C-143.1 244.9 -167.9 244.3 -185.6 232.7C-203.2 221.1 -213.7 198.4 -222.7 177.6C-231.6 156.7 -239 137.7 -247.2 119.1C-255.4 100.4 -264.4 82.3 -273.8 62.5C-283.1 42.7 -292.7 21.4 -302.4 0L0 0Z" fill="#b8ffcd"></path><path d="M0 226.8C-17.8 227.5 -35.7 228.2 -50.5 221.1C-65.3 214 -77 199.1 -92.2 191.4C-107.3 183.7 -125.9 183.2 -139.2 174.5C-152.4 165.8 -160.3 148.8 -167 133.2C-173.7 117.5 -179.3 103.3 -185.4 89.3C-191.6 75.3 -198.3 61.7 -205.3 46.9C-212.3 32 -219.6 16 -226.8 0L0 0Z" fill="#8effa8"></path><path d="M0 151.2C-11.9 151.7 -23.8 152.2 -33.6 147.4C-43.5 142.7 -51.3 132.7 -61.4 127.6C-71.5 122.4 -83.9 122.1 -92.8 116.3C-101.6 110.5 -106.9 99.2 -111.3 88.8C-115.8 78.4 -119.5 68.8 -123.6 59.5C-127.7 50.2 -132.2 41.1 -136.9 31.2C-141.5 21.4 -146.4 10.7 -151.2 0L0 0Z" fill="#63ff7d"></path><path d="M0 75.6C-5.9 75.8 -11.9 76.1 -16.8 73.7C-21.8 71.3 -25.7 66.4 -30.7 63.8C-35.8 61.2 -42 61.1 -46.4 58.2C-50.8 55.3 -53.4 49.6 -55.7 44.4C-57.9 39.2 -59.8 34.4 -61.8 29.8C-63.9 25.1 -66.1 20.6 -68.4 15.6C-70.8 10.7 -73.2 5.3 -75.6 0L0 0Z" fill="#49fd64"></path></g><g transform="translate(0, 540)"><path d="M0 -378C30.1 -379.1 60.2 -380.1 83.4 -365.6C106.7 -351.1 123.1 -321 149.3 -309.9C175.4 -298.9 211.3 -306.8 235.7 -295.5C260 -284.3 272.8 -253.8 283.8 -226.3C294.8 -198.9 304 -174.4 311.7 -150.1C319.4 -125.8 325.6 -101.8 336.4 -76.8C347.1 -51.8 362.6 -25.9 378 0L0 0Z" fill="#e1ffec"></path><path d="M0 -302.4C24.1 -303.2 48.2 -304.1 66.8 -292.5C85.4 -280.9 98.5 -256.8 119.4 -247.9C140.3 -239.1 169.1 -245.4 188.5 -236.4C208 -227.4 218.2 -203 227 -181.1C235.8 -159.1 243.2 -139.5 249.4 -120.1C255.5 -100.7 260.5 -81.4 269.1 -61.4C277.7 -41.4 290.1 -20.7 302.4 0L0 0Z" fill="#b8ffcd"></path><path d="M0 -226.8C18.1 -227.4 36.1 -228.1 50.1 -219.4C64 -210.7 73.9 -192.6 89.6 -186C105.2 -179.3 126.8 -184.1 141.4 -177.3C156 -170.6 163.7 -152.3 170.3 -135.8C176.9 -119.3 182.4 -104.6 187 -90.1C191.7 -75.5 195.3 -61.1 201.8 -46.1C208.3 -31.1 217.5 -15.5 226.8 0L0 0Z" fill="#8effa8"></path><path d="M0 -151.2C12 -151.6 24.1 -152 33.4 -146.2C42.7 -140.4 49.2 -128.4 59.7 -124C70.2 -119.5 84.5 -122.7 94.3 -118.2C104 -113.7 109.1 -101.5 113.5 -90.5C117.9 -79.5 121.6 -69.8 124.7 -60C127.8 -50.3 130.2 -40.7 134.5 -30.7C138.9 -20.7 145 -10.4 151.2 0L0 0Z" fill="#63ff7d"></path><path d="M0 -75.6C6 -75.8 12 -76 16.7 -73.1C21.3 -70.2 24.6 -64.2 29.9 -62C35.1 -59.8 42.3 -61.4 47.1 -59.1C52 -56.9 54.6 -50.8 56.8 -45.3C59 -39.8 60.8 -34.9 62.3 -30C63.9 -25.2 65.1 -20.4 67.3 -15.4C69.4 -10.4 72.5 -5.2 75.6 0L0 0Z" fill="#49fd64"></path></g></svg>