<svg id="visual" viewBox="0 0 600 900" width="600" height="900" xmlns="http://www.w3.org/2000/svg" xmlns:xlink="http://www.w3.org/1999/xlink" version="1.1"><rect x="0" y="0" width="600" height="900" fill="transparent"></rect><defs><linearGradient id="grad1_0" x1="0%" y1="0%" x2="100%" y2="100%"><stop offset="30%" stop-color="#49fd64" stop-opacity="1"></stop><stop offset="70%" stop-color="#49fd64" stop-opacity="1"></stop></linearGradient></defs><defs><linearGradient id="grad1_1" x1="0%" y1="0%" x2="100%" y2="100%"><stop offset="30%" stop-color="#49fd64" stop-opacity="1"></stop><stop offset="70%" stop-color="#3bbd4e" stop-opacity="1"></stop></linearGradient></defs><defs><linearGradient id="grad1_2" x1="0%" y1="0%" x2="100%" y2="100%"><stop offset="30%" stop-color="#2d8138" stop-opacity="1"></stop><stop offset="70%" stop-color="#3bbd4e" stop-opacity="1"></stop></linearGradient></defs><defs><linearGradient id="grad1_3" x1="0%" y1="0%" x2="100%" y2="100%"><stop offset="30%" stop-color="#2d8138" stop-opacity="1"></stop><stop offset="70%" stop-color="#1f4a23" stop-opacity="1"></stop></linearGradient></defs><defs><linearGradient id="grad1_4" x1="0%" y1="0%" x2="100%" y2="100%"><stop offset="30%" stop-color="#0d190c" stop-opacity="1"></stop><stop offset="70%" stop-color="#1f4a23" stop-opacity="1"></stop></linearGradient></defs><defs><linearGradient id="grad2_0" x1="0%" y1="0%" x2="100%" y2="100%"><stop offset="30%" stop-color="#49fd64" stop-opacity="1"></stop><stop offset="70%" stop-color="#49fd64" stop-opacity="1"></stop></linearGradient></defs><defs><linearGradient id="grad2_1" x1="0%" y1="0%" x2="100%" y2="100%"><stop offset="30%" stop-color="#3bbd4e" stop-opacity="1"></stop><stop offset="70%" stop-color="#49fd64" stop-opacity="1"></stop></linearGradient></defs><defs><linearGradient id="grad2_2" x1="0%" y1="0%" x2="100%" y2="100%"><stop offset="30%" stop-color="#3bbd4e" stop-opacity="1"></stop><stop offset="70%" stop-color="#2d8138" stop-opacity="1"></stop></linearGradient></defs><defs><linearGradient id="grad2_3" x1="0%" y1="0%" x2="100%" y2="100%"><stop offset="30%" stop-color="#1f4a23" stop-opacity="1"></stop><stop offset="70%" stop-color="#2d8138" stop-opacity="1"></stop></linearGradient></defs><defs><linearGradient id="grad2_4" x1="0%" y1="0%" x2="100%" y2="100%"><stop offset="30%" stop-color="#1f4a23" stop-opacity="1"></stop><stop offset="70%" stop-color="#0d190c" stop-opacity="1"></stop></linearGradient></defs><g transform="translate(600, 0)"><path d="M0 350C-34.8 371.3 -69.5 392.6 -105.3 393.1C-141.2 393.7 -178 373.5 -198 342.9C-218 312.4 -221 271.4 -251.7 251.7C-282.5 232.1 -340.9 233.9 -367.2 212C-393.5 190.1 -387.6 144.6 -393.1 105.3C-398.7 66.1 -415.7 33 -432.7 0L0 0Z" fill="#173018"></path><path d="M0 280C-27.8 297 -55.6 314.1 -84.3 314.5C-112.9 315 -142.4 298.8 -158.4 274.4C-174.4 249.9 -176.8 217.1 -201.4 201.4C-226 185.7 -272.7 187.1 -293.8 169.6C-314.8 152.1 -310.1 115.7 -314.5 84.3C-318.9 52.9 -332.5 26.4 -346.1 0L0 0Z" fill="#26652d"></path><path d="M0 210C-20.9 222.8 -41.7 235.5 -63.2 235.9C-84.7 236.2 -106.8 224.1 -118.8 205.8C-130.8 187.4 -132.6 162.8 -151 151C-169.5 139.3 -204.6 140.3 -220.3 127.2C-236.1 114.1 -232.5 86.8 -235.9 63.2C-239.2 39.6 -249.4 19.8 -259.6 0L0 0Z" fill="#349f43"></path><path d="M0 140C-13.9 148.5 -27.8 157 -42.1 157.3C-56.5 157.5 -71.2 149.4 -79.2 137.2C-87.2 124.9 -88.4 108.5 -100.7 100.7C-113 92.8 -136.4 93.5 -146.9 84.8C-157.4 76.1 -155 57.8 -157.3 42.1C-159.5 26.4 -166.3 13.2 -173.1 0L0 0Z" fill="#42dd59"></path><path d="M0 70C-7 74.3 -13.9 78.5 -21.1 78.6C-28.2 78.7 -35.6 74.7 -39.6 68.6C-43.6 62.5 -44.2 54.3 -50.3 50.3C-56.5 46.4 -68.2 46.8 -73.4 42.4C-78.7 38 -77.5 28.9 -78.6 21.1C-79.7 13.2 -83.1 6.6 -86.5 0L0 0Z" fill="#49fd64"></path></g><g transform="translate(0, 900)"><path d="M0 -432.7C35.2 -416.8 70.4 -401 103.3 -385.4C136.1 -369.8 166.6 -354.4 191.5 -331.7C216.4 -308.9 235.8 -278.8 251.7 -251.7C267.7 -224.6 280.3 -200.6 309.2 -178.5C338 -156.4 383.1 -136.3 398.9 -106.9C414.8 -77.5 401.4 -38.7 388 0L0 0Z" fill="#173018"></path><path d="M0 -346.1C28.2 -333.5 56.3 -320.8 82.6 -308.3C108.9 -295.8 133.3 -283.5 153.2 -265.4C173.1 -247.2 188.6 -223.1 201.4 -201.4C214.2 -179.7 224.3 -160.5 247.3 -142.8C270.4 -125.1 306.5 -109.1 319.1 -85.5C331.8 -62 321.1 -31 310.4 0L0 0Z" fill="#26652d"></path><path d="M0 -259.6C21.1 -250.1 42.3 -240.6 62 -231.2C81.7 -221.9 100 -212.7 114.9 -199C129.8 -185.4 141.5 -167.3 151 -151C160.6 -134.8 168.2 -120.3 185.5 -107.1C202.8 -93.9 229.9 -81.8 239.4 -64.1C248.9 -46.5 240.8 -23.2 232.8 0L0 0Z" fill="#349f43"></path><path d="M0 -173.1C14.1 -166.7 28.2 -160.4 41.3 -154.2C54.4 -147.9 66.6 -141.8 76.6 -132.7C86.6 -123.6 94.3 -111.5 100.7 -100.7C107.1 -89.9 112.1 -80.2 123.7 -71.4C135.2 -62.6 153.2 -54.5 159.6 -42.8C165.9 -31 160.6 -15.5 155.2 0L0 0Z" fill="#42dd59"></path><path d="M0 -86.5C7 -83.4 14.1 -80.2 20.7 -77.1C27.2 -74 33.3 -70.9 38.3 -66.3C43.3 -61.8 47.2 -55.8 50.3 -50.3C53.5 -44.9 56.1 -40.1 61.8 -35.7C67.6 -31.3 76.6 -27.3 79.8 -21.4C83 -15.5 80.3 -7.7 77.6 0L0 0Z" fill="#49fd64"></path></g></svg>