<svg viewBox="0 0 1000 1000" xmlns="http://www.w3.org/2000/svg"><defs><clipPath id="a"><path fill="currentColor" d="M868 652q-6 152-155.5 177.5T477 772q-86-83-164-129T179 480q-56-117 37.5-213T429 198.5Q548 226 668 242t163 137q43 121 37 273Z"/></clipPath><pattern id="b" patternUnits="userSpaceOnUse" width="25" height="25" viewBox="0 0 100 100" fill="#212121"><circle cx="50" cy="50" r="12.5"/></pattern></defs><g clip-path="url(#a)"><path fill="url(#b)" d="M868 652q-6 152-155.5 177.5T477 772q-86-83-164-129T179 480q-56-117 37.5-213T429 198.5Q548 226 668 242t163 137q43 121 37 273Z"/></g></svg>