<svg xmlns="http://www.w3.org/2000/svg" version="1.1" xmlns:xlink="http://www.w3.org/1999/xlink" xmlns:svgjs="http://svgjs.dev/svgjs" viewBox="0 0 800 800"><defs><linearGradient x1="50%" y1="0%" x2="50%" y2="100%" id="uundulate-grad"><stop stop-color="hsl(162, 100%, 58%)" stop-opacity="1" offset="45%"></stop><stop stop-color="hsl(270, 73%, 53%)" stop-opacity="1" offset="100%"></stop></linearGradient></defs><g stroke-width="2" stroke="url(#uundulate-grad)" fill="none"><path d="M740.5110069354425 239.75211656074862C750.8957160068458 358.99716357215925 593.6035760355147 466.5131140461483 485.07370241366016 581.6365461171624C376.5438287918055 696.7599781881763 285.01768315229174 818.3316983421435 219.56761355054095 792.3445905016154C154.11754394879006 766.3574826610875 201.43650215309822 594.3920786650438 170.91336832525633 456.8984284826273C140.39023449741444 319.40477830021086 17.991210646551963 225.63300879689916 73.0565711768997 132.37506962601663C128.12193170724743 39.117130455133974 296.1740914212288 -13.109897649010861 435.2270988709254 9.260320462391519C574.2801063206219 31.630538573793842 730.1262978640393 120.50706954933798 740.5110069354425 239.75211656074862C750.8957160068458 358.99716357215925 593.6035760355147 466.5131140461483 485.07370241366016 581.6365461171624 "></path><path d="M709.555458076077 254.32006434943764C718.9961026864435 362.7246525416292 576.0032481670518 460.466425699801 477.33972669263835 565.1240912189047C378.67620521822516 669.7817567380084 295.4706182732127 780.3015023325238 235.9705549988937 756.6768588411346C176.47049172457474 733.0522153497454 219.487726455764 576.7200298987968 191.73942297590776 451.72580246023654C163.99111949605145 326.7315750216761 52.719279631631025 241.48451183684733 102.77869829558352 156.70456713604494C152.83811695953602 71.92462243524255 305.61280760861007 24.44550597692904 432.02463256287956 44.78206789638574C558.4364575171492 65.11862981584238 700.1148134657105 145.9154761572462 709.555458076077 254.32006434943764C718.9961026864435 362.7246525416292 576.0032481670518 460.466425699801 477.33972669263835 565.1240912189047 "></path><path d="M678.5999397342896 268.88810369086104C687.0965198836194 366.45223306383343 558.4029508161669 454.41982890618806 469.6057814891949 548.6117278733814C380.80861216222297 642.8036268405748 305.9235839117117 742.2713978756386 252.3735269648247 721.0092187333884C198.8234700179376 699.7470395911381 237.53898127600792 559.0480726852843 212.56550814413725 446.55326799058C187.59203501226665 334.05846329587575 87.44737913428827 257.33610642952976 132.50085593184548 181.03415619880764C177.55433272940274 104.73220596808551 315.05155431356934 62.00100115560332 428.82219677241187 80.30390688311434C542.5928392312546 98.60681261062535 670.1033595849598 171.32397431788877 678.5999397342896 268.88810369086104C687.0965198836194 366.45223306383343 558.4029508161669 454.41982890618806 469.6057814891949 548.6117278733814 "></path><path d="M647.644375616135 283.4560819971283C655.1968913044282 370.1797525508814 540.8026076889148 448.3731710774189 461.87179050938425 532.0993034927019C382.9409733298535 615.8254359079849 316.3765037738435 704.2412323835972 268.7764531543884 685.3415175904859C221.17640253493323 666.4418027973746 255.59019031988464 541.3760544366155 233.39154753599962 441.38067248576726C211.1929047521146 341.385290534919 122.17543286057827 273.18763998705595 162.22296779174025 205.36368422641408C202.27050272290222 137.53972846577216 324.4902552421614 99.5564352991214 425.6197152055771 115.82568483468668C526.7491751689928 132.09493437025202 640.0918599278418 196.7324114433751 647.644375616135 283.4560819971283C655.1968913044282 370.1797525508814 540.8026076889148 448.3731710774189 461.87179050938425 532.0993034927019 "></path><path d="M616.6888572743477 298.0240908209736C623.2973085016042 373.9073025555076 523.20231033803 442.3265437662278 454.1378453059407 515.5869096296005C385.0733802738514 588.847275492973 326.82946941234263 666.2110974091339 285.17942512031937 649.6738469651616C243.5293808282961 633.1365965211892 273.64144514012855 523.7040667055251 254.21763270422917 436.2081074985326C234.7938202683298 348.7121482915404 156.90353236323546 289.0392040621603 191.9451254280022 229.69324277159865C226.98671849276894 170.347281481037 333.92900194712075 137.11189996021756 422.4172794151094 151.3474933038372C510.90555688309814 165.58308664745687 610.0804060470912 222.14087908643955 616.6888572743477 298.0240908209736C623.2973085016042 373.9073025555076 523.20231033803 442.3265437662278 454.1378453059407 515.5869096296005 "></path><path d="M585.733277897404 312.59205386845167C591.3976646636238 377.63480678376663 505.6019519519889 436.2798706786697 446.40383906734087 499.0744699901318C387.20572618269284 561.8690693015941 337.28237401568543 628.1809166583033 301.58233605109405 614.0061305634699C265.88229808650266 599.8313444686364 291.6926389252162 506.0320331980672 275.0436568373025 431.0354967349309C258.3946747493887 356.03896027179474 191.63157083073645 304.8907223608974 221.6672220291079 254.02275554041603C251.70287322747942 203.15478871993457 343.36768761692383 174.66731884494652 419.2147825894856 186.8692559966205C495.06187756204736 199.07119314829453 580.0688911311842 247.54930095313676 585.733277897404 312.59205386845167C591.3976646636238 377.63480678376663 505.6019519519889 436.2798706786697 446.40383906734087 499.0744699901318 "></path><path d="M554.7777290380385 327.16006269229695C559.4980513432217 381.36235678839273 488.00162408352594 430.2332433674786 438.6698633463192 482.5620761270304C389.3381026091126 534.8909088865823 347.73530913660636 590.15078168384 317.98527749944685 578.3384599381454C288.2352458622874 566.5261381924508 309.743863227882 488.36004546697654 295.86971148795385 425.8629317476964C281.99555974802576 363.3658180284162 226.3596398158155 320.7422864360018 251.3893491477918 278.3523140856006C276.419058479768 235.9623417351994 352.80640380430503 212.22278350604267 416.0123162814398 222.39106446577097C479.2182287585746 232.55934542549932 550.0574067328553 272.9577685962012 554.7777290380385 327.16006269229695C559.4980513432217 381.36235678839273 488.00162408352594 430.2332433674786 438.6698633463192 482.5620761270304 "></path><path d="M523.8222106962511 341.72804099856415C527.5984685403977 385.0898762754407 470.401326732641 424.18658553870944 430.9359181428757 466.04965174635095C391.47050955311033 507.91271795399246 358.18827477510536 552.1206161917986 334.3882494653778 542.6707587952429C310.5882241556502 533.2209013986874 327.7951180481259 470.68802721830775 316.6957966561834 420.69033624288363C305.5964752642409 370.6926452674595 261.08773931847276 336.593819993528 281.11150678405374 302.68184211320704C301.13527424963473 268.7698642328861 362.2451505092643 249.7782176495607 412.80988049097215 257.91284241734337C463.37461047267993 266.04746718512604 520.0459528521045 298.36620572168755 523.8222106962511 341.72804099856415C527.5984685403977 385.0898762754407 470.401326732641 424.18658553870944 430.9359181428757 466.04965174635095 "></path><path d="M492.86663131930754 356.29604982240943C495.69882470241737 388.8174262800669 452.8009683465999 418.13995822751843 423.2019119042759 449.5372578832495C393.6028554619519 480.9345575389807 368.64117937844816 514.0904812173353 350.79116039615246 507.00308816991856C332.9411414138568 499.9156951225018 345.8463118332136 453.0160394872172 337.5218207892567 415.51777125564905C329.19732974529984 378.01950302408096 295.8157777859737 352.4453840686323 310.83360338515945 327.0114006583916C325.85142898434515 301.5774172481509 371.6838361790674 287.33368231065685 409.60738366534827 293.43465088649384C447.53093115162915 299.5356194623308 490.0344379361975 323.774673364752 492.86663131930754 356.29604982240943C495.69882470241737 388.8174262800669 452.8009683465999 418.13995822751843 423.2019119042759 449.5372578832495 "></path><path d="M461.911097718731 370.8640128698875C463.7992266408043 392.5449305083258 435.20065573692597 412.0932851399602 415.46795144204333 433.02481824378094C395.73524714716063 453.9563513476017 379.09412975815815 476.06030046650477 367.1941171032944 471.33537176822693C355.2941044484306 466.61044306994916 363.8975513946684 435.34400597975934 358.34789069869714 410.3451604920473C352.7982300027259 385.3463150043352 330.5438620298418 368.29690236736946 340.55574576263234 351.340913427209C350.5676294954228 334.3849244870485 381.12256762523765 324.8891011953858 406.4049326160915 328.9564135792771C431.68729760694544 333.0237259631685 460.0229687966577 349.1830952314492 461.911097718731 370.8640128698875C463.7992266408043 392.5449305083258 435.20065573692597 412.0932851399602 415.46795144204333 433.02481824378094 "></path><path d="M430.95554885936554 385.43202169373285C431.8996133204022 396.272480512952 417.60032786846295 406.0466578287692 407.73397572102164 416.51242438067953C397.8676235735803 426.9781909325899 389.5470648790791 438.0301654920414 383.5970585516472 435.6677011429025C377.6470522242153 433.30523679376364 381.9487756973342 417.67201824866873 379.17394534934857 405.1725955048127C376.399115001363 392.6731727609567 365.27193101492094 384.1484664424738 370.27787288131617 375.67047197239356C375.2838147477114 367.1924775023133 390.5612838126188 362.444565856482 403.20246630804576 364.47822204842765C415.8436488034727 366.5118782403733 430.0114843983289 374.59156287451367 430.95554885936554 385.43202169373285C431.8996133204022 396.272480512952 417.60032786846295 406.0466578287692 407.73397572102164 416.51242438067953 "></path></g></svg>